<?xml version="1.0" standalone="no"?>
<!DOCTYPE svg PUBLIC "-//W3C//DTD SVG 20010904//EN"
 "http://www.w3.org/TR/2001/REC-SVG-20010904/DTD/svg10.dtd">
<svg version="1.0" xmlns="http://www.w3.org/2000/svg"
 width="16.000000pt" height="16.000000pt" viewBox="0 0 16.000000 16.000000"
 preserveAspectRatio="xMidYMid meet">
<metadata>
Created by potrace 1.11, written by Peter Selinger 2001-2013
</metadata>
<g transform="translate(0.000000,16.000000) scale(0.003125,-0.003125)"
fill="#000000" stroke="none">
<path d="M491 5104 c-164 -44 -338 -185 -418 -340 -78 -150 -73 -26 -73 -1674
0 -1616 -4 -1508 58 -1640 74 -160 244 -308 417 -362 91 -29 114 -30 515 -32
l285 -1 1 -447 1 -447 25 -48 c14 -28 42 -60 67 -78 36 -25 53 -30 114 -33 55
-2 80 1 107 15 38 20 104 71 846 649 445 346 480 373 506 383 13 5 381 9 818
9 l795 0 87 30 c121 41 190 84 283 177 59 58 92 102 122 160 79 154 73 15 73
1665 0 1246 -2 1484 -14 1530 -47 178 -182 343 -356 434 -135 71 33 66 -2195
65 -1718 0 -2018 -2 -2064 -15z m4109 -436 c33 -17 51 -35 68 -68 l22 -44 0
-1461 c0 -1395 -1 -1462 -19 -1500 -21 -46 -44 -69 -85 -85 -21 -8 -278 -11
-877 -10 -467 0 -866 -2 -887 -6 -32 -5 -134 -80 -566 -415 -289 -225 -531
-409 -536 -409 -6 0 -10 143 -10 408 l0 409 -153 7 c-85 4 -342 6 -573 6 -292
-1 -428 2 -449 10 -42 16 -65 39 -86 85 -18 38 -19 105 -19 1500 l0 1461 23
44 c16 33 34 51 67 68 l44 22 1996 0 1996 0 44 -22z"/>
<path d="M1070 3735 l0 -105 1490 0 1490 0 0 105 0 105 -1490 0 -1490 0 0
-105z"/>
<path d="M1070 3095 l0 -105 1490 0 1490 0 0 105 0 105 -1490 0 -1490 0 0
-105z"/>
<path d="M1070 2455 l0 -105 1065 0 1066 0 -3 103 -3 102 -1062 3 -1063 2 0
-105z"/>
</g>
</svg>
